<svg width="100" height="39" viewBox="0 0 100 39" fill="none" xmlns="http://www.w3.org/2000/svg">
<path d="M11.2572 1.94346C10.5705 1.25264 9.84272 0.603459 9.07775 0C8.31808 0.610085 7.59586 1.2656 6.91513 1.96248C7.68323 2.53917 8.41127 3.16714 9.09427 3.84135C9.77151 3.16111 10.4941 2.5268 11.2572 1.94346Z" fill="url(#paint0_linear)"/>
<path d="M7.36592 5.80355C6.68876 5.1261 5.96017 4.50088 5.1866 3.93437C4.59542 4.68705 4.04759 5.47595 3.54693 6.29726C4.33192 6.87571 5.06175 7.52579 5.72699 8.23795C6.21847 7.38739 6.76651 6.57417 7.36592 5.80355Z" fill="url(#paint1_linear)"/>
<path d="M7.47383 10.4799C7.94676 9.54415 8.49532 8.65376 9.1114 7.81697C9.73477 8.64845 10.291 9.534 10.772 10.4654C10.0975 11.5322 9.54612 12.6859 9.13784 13.906C8.71904 12.6899 8.15764 11.5411 7.47383 10.4799Z" fill="url(#paint2_linear)"/>
<path d="M4.6499 10.3685C4.00285 9.58867 3.27094 8.88292 2.46849 8.26573C2.03058 9.16101 1.64584 10.0875 1.31841 11.041C2.1827 11.8082 2.92276 12.7145 3.50424 13.7251C3.79503 12.5656 4.1798 11.4438 4.6499 10.3685Z" fill="url(#paint3_linear)"/>
<path d="M3.55047 24.419C2.97762 25.4349 2.24536 26.3475 1.38801 27.122C1.72368 28.0723 2.11646 28.9953 2.56218 29.8868C3.35909 29.2627 4.08491 28.5506 4.72531 27.765C4.24579 26.6938 3.85128 25.5755 3.55047 24.419Z" fill="url(#paint4_linear)"/>
<path d="M6.45151 25.0471C5.80688 23.1447 5.45707 21.1043 5.45707 18.9816C5.45707 16.9164 5.78814 14.9293 6.39964 13.0713C7.29344 14.8921 7.79582 16.9432 7.79582 19.1126C7.79582 21.2398 7.31285 23.2531 6.45151 25.0471Z" fill="url(#paint5_linear)"/>
<path d="M5.82084 29.886C5.16167 30.604 4.43745 31.2604 3.65763 31.8457C4.16531 32.6624 4.71991 33.4465 5.31761 34.1941C6.08616 33.6208 6.80934 32.9893 7.48073 32.3058C6.87463 31.5404 6.3196 30.732 5.82084 29.886Z" fill="url(#paint6_linear)"/>
<path d="M9.20878 30.2772C8.58541 29.4457 8.02917 28.5602 7.54821 27.6288C8.22263 26.5619 8.77405 25.4083 9.18233 24.1882C9.60113 25.4043 10.1625 26.5531 10.8463 27.6142C10.3734 28.55 9.82485 29.4404 9.20878 30.2772Z" fill="url(#paint7_linear)"/>
<path d="M9.2259 34.2528C8.54866 34.9331 7.82604 35.5674 7.06302 36.1507C7.74964 36.8415 8.47746 37.4907 9.24242 38.0942C10.0021 37.4841 10.7243 36.8286 11.405 36.1317C10.6369 35.555 9.9089 34.927 9.2259 34.2528Z" fill="url(#paint8_linear)"/>
<path d="M13.1336 34.1598C12.36 33.5933 11.6314 32.9681 10.9543 32.2906C11.5537 31.52 12.1017 30.7068 12.5932 29.8562C13.2584 30.5684 13.9883 31.2185 14.7732 31.7969C14.2726 32.6182 13.7248 33.4071 13.1336 34.1598Z" fill="url(#paint9_linear)"/>
<path d="M14.6625 6.2485C14.1549 5.43174 13.6003 4.64766 13.0026 3.90012C12.234 4.47333 11.5108 5.1049 10.8394 5.78833C11.4455 6.55376 12.0006 7.36214 12.4993 8.20823C13.1585 7.49016 13.8827 6.83374 14.6625 6.2485Z" fill="url(#paint10_linear)"/>
<path d="M13.5949 10.3291C14.2353 9.54353 14.9611 8.83145 15.758 8.20737C16.2037 9.09884 16.5965 10.0219 16.9322 10.9722C16.0748 11.7467 15.3425 12.6593 14.7697 13.6752C14.4689 12.5187 14.0744 11.4004 13.5949 10.3291Z" fill="url(#paint11_linear)"/>
<path d="M11.8687 13.0471C11.0073 14.8411 10.5244 16.8544 10.5244 18.9816C10.5244 21.151 11.0267 23.2021 11.9205 25.0229C12.532 23.1649 12.8631 21.1777 12.8631 19.1126C12.8631 16.9899 12.5133 14.9495 11.8687 13.0471Z" fill="url(#paint12_linear)"/>
<path d="M13.6703 27.7257C14.3173 28.5055 15.0492 29.2113 15.8517 29.8284C16.2896 28.9332 16.6743 28.0067 17.0018 27.0532C16.1375 26.286 15.3974 25.3797 14.8159 24.3691C14.5251 25.5286 14.1404 26.6504 13.6703 27.7257Z" fill="url(#paint13_linear)"/>
<path d="M17.6131 13.2508C18.075 15.1279 18.3202 17.0914 18.3202 19.1126C18.3202 21.0601 18.0926 22.9539 17.6628 24.7685C16.2945 23.2357 15.4617 21.2067 15.4617 18.9816C15.4617 16.7835 16.2744 14.7769 17.6131 13.2508Z" fill="url(#paint14_linear)"/>
<path d="M0.707075 24.8434C2.04582 23.3173 2.85847 21.3107 2.85847 19.1126C2.85847 16.8875 2.02567 14.8585 0.657346 13.3257C0.22757 15.1403 0 17.0341 0 18.9816C0 21.0028 0.245144 22.9663 0.707075 24.8434Z" fill="url(#paint15_linear)"/>
<path d="M39.0909 16.6461H42.1547V0.130859H38.8805V11.1607L30.5662 0.130859H27.5142V16.6461H30.7767L30.7884 5.61626L39.0909 16.6461Z" fill="white"/>
<path fill-rule="evenodd" clip-rule="evenodd" d="M57.5005 16.6461H60.9852L54.6122 0.130859H50.6363L44.2632 16.6461H47.6661L49.0927 12.8004H56.0739L57.5005 16.6461ZM54.9513 9.76866H50.2153L52.5892 3.38671L54.9513 9.76866Z" fill="white"/>
<path d="M81.1646 16.6461H77.9021V4.17708L73.856 15.0535H70.4064L66.3603 4.27146V16.6461H63.0978V0.130859H67.8805L72.137 11.2786L76.3819 0.130859H81.1646V16.6461Z" fill="white"/>
<path fill-rule="evenodd" clip-rule="evenodd" d="M96.5101 16.6461H99.9948L93.6217 0.130859H89.6458L83.2728 16.6461H86.6756L88.1023 12.8004H95.0834L96.5101 16.6461ZM93.9608 9.76866H89.2249L91.5987 3.38671L93.9608 9.76866Z" fill="white"/>
<path d="M84.8773 26.4632C85.3714 26.4632 85.8467 26.5173 86.3032 26.6257C86.765 26.734 87.1947 26.8912 87.5921 27.097C87.9895 27.2975 88.3493 27.544 88.6715 27.8365C88.9991 28.1291 89.273 28.4569 89.4932 28.8198L88.309 29.6244C87.9385 29.0718 87.4578 28.6356 86.8671 28.316C86.2763 27.9964 85.6131 27.8365 84.8773 27.8365C84.2543 27.8365 83.677 27.9449 83.1454 28.1616C82.619 28.3783 82.1599 28.6844 81.7678 29.0799C81.3758 29.47 81.0697 29.9413 80.8495 30.4939C80.6293 31.0465 80.5192 31.656 80.5192 32.3224C80.5192 32.9888 80.6293 33.5982 80.8495 34.1509C81.0697 34.7035 81.3758 35.1775 81.7678 35.573C82.1599 35.9631 82.619 36.2665 83.1454 36.4832C83.677 36.6999 84.2543 36.8082 84.8773 36.8082C85.6023 36.8082 86.2602 36.6511 86.851 36.3369C87.4471 36.0227 87.9304 35.5865 88.301 35.0285L89.461 35.8818C89.2247 36.2394 88.9427 36.559 88.6152 36.8407C88.2929 37.1224 87.9358 37.3635 87.5437 37.564C87.1517 37.7644 86.7301 37.9161 86.279 38.0191C85.8333 38.1274 85.366 38.1816 84.8773 38.1816C84.0288 38.1816 83.2474 38.038 82.5331 37.7509C81.8242 37.4583 81.2093 37.052 80.6884 36.5319C80.1674 36.0118 79.762 35.3942 79.472 34.6791C79.182 33.9585 79.037 33.173 79.037 32.3224C79.037 31.4718 79.182 30.6889 79.472 29.9738C79.762 29.2533 80.1674 28.6329 80.6884 28.1128C81.2093 27.5927 81.8242 27.1891 82.5331 26.902C83.2474 26.6094 84.0288 26.4632 84.8773 26.4632Z" fill="white"/>
<path d="M50.9558 38.0191H52.2366V26.6338H50.8188V35.5649L43.9956 26.6257H42.7148V38.0109H44.1326L44.1406 29.0799L50.9558 38.0191Z" fill="white"/>
<path d="M35.19 32.9562H29.0597V38.0109H27.6419V26.6338H35.5123V27.9909H29.0597V31.6072H35.19V32.9562Z" fill="white"/>
<path d="M39.5069 38.0109H38.0891V26.6338H39.5069V38.0109Z" fill="white"/>
<path fill-rule="evenodd" clip-rule="evenodd" d="M65.0619 38.0109H63.5393L62.2988 34.9066H56.829L55.5965 38.0109H54.1223L58.7059 26.6338H60.4701L65.0619 38.0109ZM57.3687 33.5495H61.759L59.5679 28.0478L57.3687 33.5495Z" fill="white"/>
<path d="M75.1857 38.0191H76.4666V26.6338H75.0488V35.5649L68.2256 26.6257H66.9448V38.0109H68.3626L68.3706 29.0799L75.1857 38.0191Z" fill="white"/>
<path d="M91.9929 38.0109H100V36.6701H93.4107V32.9562H99.7102V31.6072H93.4107V27.9747H99.9197V26.6338H91.9929V38.0109Z" fill="white"/>
<defs>
<linearGradient id="paint0_linear" x1="-9.16009" y1="19.0471" x2="20.5978" y2="33.3582" gradientUnits="userSpaceOnUse">
<stop stop-color="#F26522"/>
<stop offset="1" stop-color="#F96DB1"/>
</linearGradient>
<linearGradient id="paint1_linear" x1="-9.16009" y1="19.0471" x2="20.5978" y2="33.3582" gradientUnits="userSpaceOnUse">
<stop stop-color="#F26522"/>
<stop offset="1" stop-color="#F96DB1"/>
</linearGradient>
<linearGradient id="paint2_linear" x1="-9.16009" y1="19.0471" x2="20.5978" y2="33.3582" gradientUnits="userSpaceOnUse">
<stop stop-color="#F26522"/>
<stop offset="1" stop-color="#F96DB1"/>
</linearGradient>
<linearGradient id="paint3_linear" x1="-9.16009" y1="19.0471" x2="20.5978" y2="33.3582" gradientUnits="userSpaceOnUse">
<stop stop-color="#F26522"/>
<stop offset="1" stop-color="#F96DB1"/>
</linearGradient>
<linearGradient id="paint4_linear" x1="-9.16009" y1="19.0471" x2="20.5978" y2="33.3582" gradientUnits="userSpaceOnUse">
<stop stop-color="#F26522"/>
<stop offset="1" stop-color="#F96DB1"/>
</linearGradient>
<linearGradient id="paint5_linear" x1="-9.16009" y1="19.0471" x2="20.5978" y2="33.3582" gradientUnits="userSpaceOnUse">
<stop stop-color="#F26522"/>
<stop offset="1" stop-color="#F96DB1"/>
</linearGradient>
<linearGradient id="paint6_linear" x1="-9.16009" y1="19.0471" x2="20.5978" y2="33.3582" gradientUnits="userSpaceOnUse">
<stop stop-color="#F26522"/>
<stop offset="1" stop-color="#F96DB1"/>
</linearGradient>
<linearGradient id="paint7_linear" x1="-9.16009" y1="19.0471" x2="20.5978" y2="33.3582" gradientUnits="userSpaceOnUse">
<stop stop-color="#F26522"/>
<stop offset="1" stop-color="#F96DB1"/>
</linearGradient>
<linearGradient id="paint8_linear" x1="-9.16009" y1="19.0471" x2="20.5978" y2="33.3582" gradientUnits="userSpaceOnUse">
<stop stop-color="#F26522"/>
<stop offset="1" stop-color="#F96DB1"/>
</linearGradient>
<linearGradient id="paint9_linear" x1="-9.16009" y1="19.0471" x2="20.5978" y2="33.3582" gradientUnits="userSpaceOnUse">
<stop stop-color="#F26522"/>
<stop offset="1" stop-color="#F96DB1"/>
</linearGradient>
<linearGradient id="paint10_linear" x1="-9.16009" y1="19.0471" x2="20.5978" y2="33.3582" gradientUnits="userSpaceOnUse">
<stop stop-color="#F26522"/>
<stop offset="1" stop-color="#F96DB1"/>
</linearGradient>
<linearGradient id="paint11_linear" x1="-9.16009" y1="19.0471" x2="20.5978" y2="33.3582" gradientUnits="userSpaceOnUse">
<stop stop-color="#F26522"/>
<stop offset="1" stop-color="#F96DB1"/>
</linearGradient>
<linearGradient id="paint12_linear" x1="-9.16009" y1="19.0471" x2="20.5978" y2="33.3582" gradientUnits="userSpaceOnUse">
<stop stop-color="#F26522"/>
<stop offset="1" stop-color="#F96DB1"/>
</linearGradient>
<linearGradient id="paint13_linear" x1="-9.16009" y1="19.0471" x2="20.5978" y2="33.3582" gradientUnits="userSpaceOnUse">
<stop stop-color="#F26522"/>
<stop offset="1" stop-color="#F96DB1"/>
</linearGradient>
<linearGradient id="paint14_linear" x1="-9.16009" y1="19.0471" x2="20.5978" y2="33.3582" gradientUnits="userSpaceOnUse">
<stop stop-color="#F26522"/>
<stop offset="1" stop-color="#F96DB1"/>
</linearGradient>
<linearGradient id="paint15_linear" x1="-9.16009" y1="19.0471" x2="20.5978" y2="33.3582" gradientUnits="userSpaceOnUse">
<stop stop-color="#F26522"/>
<stop offset="1" stop-color="#F96DB1"/>
</linearGradient>
</defs>
</svg>
