<svg width="46" height="46" viewBox="0 0 46 46" fill="none" xmlns="http://www.w3.org/2000/svg">
<rect width="46" height="46" rx="23" fill="#1BA27A"/>
<path fill-rule="evenodd" clip-rule="evenodd" d="M34.5 11.5H11.5V16.8667H19.9333V36.8H26.0667V16.8667H34.5V11.5Z" fill="white"/>
<path fill-rule="evenodd" clip-rule="evenodd" d="M23 24.7946C34.0947 24.7946 36.8 22.7369 36.8 21.4667C36.8 20.1964 30.6215 19.1667 23 19.1667C15.3785 19.1667 9.20001 20.1964 9.20001 21.4667C9.20001 22.7369 11.9053 24.7946 23 24.7946ZM23 23.1917C29.7747 23.1917 35.2667 22.4194 35.2667 21.4667C35.2667 20.514 29.7747 19.7417 23 19.7417C16.2253 19.7417 10.7333 20.514 10.7333 21.4667C10.7333 22.4194 16.2253 23.1917 23 23.1917Z" fill="white"/>
<path fill-rule="evenodd" clip-rule="evenodd" d="M19.9333 22.6016C19.9333 22.6016 21.9751 22.8228 23 22.8228C24.025 22.8228 26.0667 22.6016 26.0667 22.6016V23.0752C26.0667 23.0752 25.1499 23.2351 23 23.2351C20.8502 23.2351 19.9333 23.0752 19.9333 23.0752V22.6016Z" fill="#1BA27A"/>
</svg>
